<?xml version="1.0" ?><svg height="64px" id="Слой_1" style="enable-background:new 0 0 64 64;" version="1.1" viewBox="0 0 64 64" width="64px" xml:space="preserve" xmlns="http://www.w3.org/2000/svg" xmlns:xlink="http://www.w3.org/1999/xlink"><g id="row_3_1_"><g id="scan_head"><path d="M54,57H10c-1.2-1.2-1.8-1.8-3-3V10c1.2-1.2,1.8-1.8,3-3h44c1.2,1.2,1.8,1.8,3,3v44    C55.8,55.2,55.2,55.8,54,57z" style="fill:#212121;"/><path d="M14.1,16c2.7-4.6,7.7-7.2,13-7c2.3,0.1,4.6,0.4,6.9,0.9c1,0.2,2,0.4,2.9,0.7    c5.9,1.6,10.2,6.8,10.6,12.9c0.1,0.9,0.1,1.7,0.1,2.6c0,1.5,0.4,3,1.1,4.4c1.2,2.4,2.6,4.8,4.2,7c0.7,1,0.3,2.4-0.9,2.8    c-0.8,0.3-1.6,0.6-2.5,0.9c0,0.8,0.1,1.7,0.2,2.5c0.1,0.9,0,1.9-0.4,2.7c-0.2,0.5-0.4,0.9-0.6,1.4c-0.3,0.7-0.3,1.4-0.3,2.2    c0.1,1.4-0.5,2.7-1.7,3.6c-0.1,0.1-0.3,0.2-0.4,0.3c-0.7,0.4-1.5,0.4-2.3,0.2c-0.9-0.2-1.8-0.3-2.7-0.4c-0.8-0.1-1.5,0.5-1.7,1.2    c-0.2,0.7-0.3,1.4-0.4,2.1H20c0-5.3-1.6-10.2-4.5-14.1c-3-4.1-4.8-9.1-4.8-14.5C10.7,23.8,11.9,19.6,14.1,16z" style="fill:#039BE5;"/><path d="M30.9,36.4c0.4-0.5,0.8-1,1.2-1.5c0.6,0.3,1.3,0.5,2,0.5c2,0,3.6-1.4,4-3.2c0.1-0.5,0.5-0.9,1-0.9    c2.8-0.1,5.6-0.8,8-1.8c-0.4-1.1-0.6-2.2-0.6-3.3c0-0.8,0-1.7-0.1-2.5c-0.4-5.7-4.4-10.5-9.9-12c-0.9-0.3-1.9-0.5-2.8-0.7    c-2.2-0.5-4.5-0.7-6.8-0.8c-0.2,0-0.4,0-0.6,0c-4.7,0-9.1,2.5-11.5,6.5c-2.1,3.6-3.2,7.7-3.2,11.8c0,1.3,0.1,2.6,0.3,3.8    c0.4,2.2,1.5,4.2,3.1,5.7c2.6,2.4,5.6,4.3,8.9,5.5c1.3,0.5,2.3,1.7,2.4,3.1c0.4,3.1,0.7,7.3,0.8,10.5h2.8c0-0.9-0.1-2.8-0.1-3.7    C30,47.6,30.3,41.9,30.9,36.4z" style="fill:#263238;"/><path d="M35.8,36.8c-1.1,0.1-2,1-2.1,2.1c-0.4,2.9-0.6,5.8-0.6,8.7c0,2.8,0.2,6.6,0.6,9.4h3.7    c-1.9-3.1-3.1-7.8-3.1-11.7c0-2.9,2.4-5.3,5.3-5.3c2.9,0,5.4,1.1,7.4,2.9c0.6,0.5,0.8,1.4,0.5,2.2c-0.6,1.5-1.6,2.9-2.9,4    c-0.9,0.8-1,2.2-0.2,3.1c0.3,0.4,0.7,0.6,1.2,0.9c0.1,0,0.1,0,0.2-0.1c0.1-0.1,0.2-0.1,0.3-0.2c0.9-0.6,1.3-1.6,1.3-2.7    c-0.1-1.1,0.1-1.9,0.4-2.6c0.2-0.5,0.4-1,0.6-1.4c0.3-0.7,0.4-1.5,0.3-2.2c-0.1-0.8-0.2-1.7-0.2-2.5l0-0.7l0,0    c-4-0.6-7.6-1.8-11.2-3.3C36.8,36.9,36.3,36.8,35.8,36.8z" style="fill:#263238;"/><path d="M30.5,31.1c0-0.6-0.2-1.1-0.6-1.5c1.2-0.3,2.1-1.4,2.1-2.7c0-1.7-1.5-3.1-3.3-2.8    c-1.1,0.2-2,1.1-2.2,2.2c-0.1,0.4-0.1,0.8,0,1.2c0.2,0.7,0,1.5-0.4,2.1c-0.4,0.6-0.6,1.3-0.4,2.2c0.7,3.6,1.4,10.9,1.9,14.6    c0.4,2.8,0.7,7.7,0.9,10.6h0.8c0-0.6-0.2-3.1-0.2-3.7c0-5.7,0.4-11.4,1-17.1C30.1,35,30.4,32.4,30.5,31.1z" style="fill:#4FC3F7;"/><path d="M24.8,25.2c-0.3,0-0.6-0.1-0.8-0.3c-0.4-0.4-0.3-1,0.1-1.4c1.3-1.1,2.7-1.9,4.3-2.4    c1.1-0.3,2.2-0.3,3.3,0c1.2,0.4,2.4,1,3.5,1.7c0.4,0.3,0.6,0.9,0.2,1.4c-0.3,0.4-0.9,0.6-1.4,0.2c-0.9-0.6-1.9-1.1-2.9-1.4    c-0.7-0.2-1.4-0.2-2.1,0c-1.3,0.4-2.5,1.1-3.6,2C25.3,25.1,25,25.2,24.8,25.2z" style="fill:#B3E5FC;"/><path d="M36.4,25.8c-0.3,0.6-0.4,1.3-0.3,2c0.3,1.5,1.8,2.5,3.3,2.5c1.1,0,2.2-0.2,3.2-0.4    c1.7-0.4,3-1.9,3-3.7l0,0c0-0.8,0-1.6-0.1-2.5c-0.4-5.2-4-9.7-9.2-11.1c-0.9-0.3-1.8-0.5-2.8-0.7c-2.2-0.4-4.4-0.7-6.6-0.8    c-0.2,0-0.4,0-0.6,0c-4.4,0-8.4,2.3-10.6,6c-2,3.4-3.1,7.3-3.1,11.3c0,1.2,0.1,2.5,0.3,3.7c0.2,1.4,0.8,2.7,1.6,3.8    c0.6,0.8,1.8,0.9,2.5,0.3c2.5-2.2,4.4-5,5.6-8.1c0.2-0.5,0.2-1.1,0-1.7c0,0,0,0,0,0c-0.4-0.9-0.1-2,0.7-2.7    c1.4-1.2,2.9-2.1,4.7-2.6c1.3-0.4,2.6-0.4,3.9,0c1.4,0.4,2.6,1,3.8,1.9C36.8,23.5,36.9,24.8,36.4,25.8z" style="fill:#81D4FA;"/><path d="M25.7,35.7c-1.4-0.7,0.5,0.5,0.1-1c0,0,0,0,0,0c-0.6-0.5-0.8-1.3-0.6-2.1c0.1-0.4,0.1-0.7-0.4-0.8    c-0.5,0.1-0.8,0.4-1.1,0.8c0.4-1,0.3-1.9-0.4-2.6c-0.7-0.2-0.9,1-1.1,2.1c-0.1,0.7-0.6,1.4-1.3,1.5c-1.5,0.4-3.5,2.1-3,2.6    c0.5,0.1,1,0,1.4-0.3c-0.5,0.7-0.1,1.4,0.9,0.7c-0.9,0.4-1.1,1.1-0.9,1.9c0.5,0.2,0.9,0.1,1.1-0.4c-0.7,0.9-0.8,1.8-0.3,2.7    c0.3,0.1,0.5,0.1,0.6,0c0.7-0.4,1.6-0.2,2.1,0.4c0.5,0.5,1,0.6,1.3-0.3c0.1-0.2-0.2-0.6-0.6-1.1c0.5,0.4,1.1,0.5,1.8,0.4    c0.4-0.4-0.3-1.2-1.1-1.9c0.3,0,0.6,0,0.9-0.2c0-0.6-0.3-1.1-0.8-1.4c0.7,0.1,0.9,1.1,1.6,0.8C26.7,36.7,26.6,36.1,25.7,35.7z" style="fill:#4FC3F7;"/></g></g></svg>