<?xml version="1.0" ?><svg height="512" id="svg2" style="fill-rule:evenodd" version="1.1" viewBox="0 0 512 512" width="512" xml:space="preserve" xmlns="http://www.w3.org/2000/svg" xmlns:cc="http://creativecommons.org/ns#" xmlns:dc="http://purl.org/dc/elements/1.1/" xmlns:rdf="http://www.w3.org/1999/02/22-rdf-syntax-ns#" xmlns:svg="http://www.w3.org/2000/svg"><defs id="defs4"><style id="style6" type="text/css"/></defs><g id="g3004" transform="matrix(19.692502,0,0,19.692502,-198.67526,-195.16388)"><g id="Слой_x0020_1"><g id="Document"><g id="Spread"><g id="Layer_x0020_1"><g id="Group"><g id="Group_1"><path d="m 15.9708,21.168 c -0.694677,0.35452 -0.946772,0.048 -1.44529,-0.07068 -0.308031,-0.07484 -0.705638,0.06009 -1.04164,-0.09184 -0.01058,-0.0042 -0.229039,-0.649323 -0.371906,-0.694677 -0.368126,-0.113386 -0.625134,-0.208252 -0.682583,-0.425575 -0.05745,-0.209386 0.11452,-0.624 0.05594,-0.894614 -0.04271,-0.182551 -0.257386,-0.224126 -0.467906,-0.385134 -0.363969,-0.277417 0.805417,-1.10135 0.298583,-1.73896 -0.263811,-0.330331 0.07861,-1.27975 0.84926,-1.74652 0.293291,-0.178772 0.410835,-0.242646 0.821291,-0.851906 0.624,-0.918803 0.533669,-0.42822 2.22425,-1.19622 0.288,-0.131906 0.470551,-0.813354 1.09455,-0.763843 0.662551,0.05216 1.35458,-1.03219 2.04813,-0.718866 1.2412,0.558992 2.18268,-1.07036 3.16913,-0.274394 0.624,0.503811 1.34551,-0.772157 2.28283,-0.0094 0.629291,0.512126 1.37575,-0.410835 2.68384,0.848126 0.699969,0.673134 1.27861,0.06803 1.48687,0.983811 0.03439,0.148157 0.446362,0.04422 0.707906,0.193512 0.533291,0.303874 0.429354,0.669354 0.601323,0.859843 0.167811,0.189354 0.614551,0.202583 0.78274,0.285354 0.421417,0.205228 0.0291,0.510614 0.157228,0.666709 0.280063,0.340157 0.543874,0.217323 0.906709,0.515906 0.146646,0.121323 0.03326,0.662929 0.300094,0.836031 0.941102,0.614551 -0.233575,0.546898 0.862488,1.38255 0.418772,0.31748 -0.549165,0.588094 0.159874,1.0628 0.888189,0.597543 -0.355654,0.416126 0.06539,1.34665 0.108094,0.242646 0.313323,0.201449 0.370772,0.353386 0.196157,0.518551 -0.100157,0.826583 -0.507969,0.97474 -0.292157,0.106583 -0.141354,0.702614 -0.396094,1.16939 -0.726425,1.344 -1.39049,-0.533291 -1.99068,-0.800126 -0.0011,0 -0.589228,-0.453165 -0.550677,-0.381354 0.196157,0.35452 1.23628,0.829228 1.07225,2.09461 -0.06803,0.530646 -0.809575,1.39616 -1.26803,1.58022 -2.18419,0.884031 -2.3229,-0.697323 -3.38683,0.250583 -0.583937,0.520063 -0.566551,0.49852 0.07861,1.13991 0.112252,0.11074 0.218835,0.102803 0.27326,0.22526 0.726803,1.63616 -0.613039,1.71213 -0.91578,0.906709 -0.0839,-0.222614 -1.15994,-1.54129 -1.26652,-1.70646 -0.25474,-0.39874 -1.40825,-1.37877 -1.91471,-1.52277 -0.843969,-0.234709 -0.513638,-2.43477 -1.52277,-1.88787 -0.397228,0.214677 -0.217323,0.830362 -1.12819,0.946394 -0.421039,0.05329 -0.729071,-0.328063 -1.09191,-0.429354 -0.475843,-0.130394 -0.973228,-0.01436 -1.23061,-0.159874 -0.168189,-0.096 -0.209386,-0.419906 -0.396094,-0.497386 -0.288,-0.119811 -0.707906,0 -0.783874,-0.238488 -0.265323,-0.849638 -0.828094,-1.22003 -0.99326,-1.13613 z m -1.87616,-5.74261 c -0.537449,0.232063 -0.823937,0.294425 -0.866646,0.873449 0.430866,-0.109606 1.90148,-0.757417 1.79754,-0.529512 -0.122835,0.04271 -2.4737,1.70948 -2.2269,0.534803 l -0.0053,0.04384 c 0.120189,-0.702613 0.563906,-1.066579 1.33984,-0.993259 0.384,-0.724157 0.448252,-1.76126 1.6388,-1.37461 -1.45058,0.650457 -0.534803,0.755906 -1.37348,1.33984 l 0.0015,-0.0079 c -0.119811,0.09449 -0.096,0.174614 -0.314835,0.130772 l 0.0094,-0.01738 z m 10.2229,6.94791 c -2.27868,1.46154 0.01323,1.08661 0.958488,2.77871 0.165543,0.234709 0.376063,0.994772 0.457323,1.25065 l -0.294803,-0.566551 -0.310677,-0.534803 c -0.426331,-0.396094 -0.119811,-0.345449 -0.826583,-0.712063 -1.80661,-0.933165 -1.44529,-1.55717 0.01625,-2.21594 z m 3.504,-0.234709 c 0.318614,0.134929 0.530646,0.36548 0.509102,0.742677 -0.0053,0.09222 -0.01739,0.06954 -0.03326,0.114898 -0.01852,0.01587 -0.04006,-0.01361 -0.05216,-0.02532 -0.607748,-0.776315 -1.44,-0.68674 -2.65852,-0.914646 1.27748,-0.276283 4.92548,-0.512126 5.50526,1.03446 0.450898,1.20794 -1.40107,2.12145 -2.80668,2.00126 l 0.393449,-0.0839 c 0.83452,-0.190488 2.6332,-1.05071 1.96535,-1.87729 -0.581291,-0.721512 -1.71591,-0.925228 -2.82255,-0.992126 z M 23.4388,21.719819 c 0.362457,-0.802394 3.31465,-1.05184 4.32794,-0.843969 0.70148,0.145512 1.78545,0.585449 2.43477,0.939969 -0.502677,-0.07597 -0.441449,-0.05858 -0.809575,-0.155717 -2.08403,-0.554835 -3.90387,-0.84548 -5.95313,0.05972 z m 3.46394,-9.00661 c -0.998551,-0.02117 -0.588094,1.27483 -1.90526,0.873449 l 0,0 c 0.962646,-0.48 1.35874,-1.59609 1.90526,-0.873449 z m 5.71616,9.51761 c -0.04422,-1.69474 -0.477354,-0.04006 -1.8308,-1.65883 0.497386,0.169323 0.765354,0.232063 1.26387,0.366614 0.864,0.229417 1.296,0.829606 0.566929,1.29222 z m 0.03439,-1.46268 c -0.947906,-1.48271 -0.338646,0.01058 -1.74917,-0.765354 -0.0601,-0.03213 -0.164031,-0.232063 -0.178772,-0.260031 0.245291,0.04535 0.130772,-0.0042 0.338646,0.15874 l -0.05745,-0.07219 c 0.234709,0.03742 0.501543,0.07219 0.726803,-0.02116 0.83452,-0.344315 1.1452,0.454677 0.919937,0.96 z m -0.500031,-1.38671 c -0.249071,-1.35874 -1.46532,-0.03326 -1.95969,-0.817512 -0.0669,-0.106583 -0.048,-0.134551 0.0064,-0.230551 l 0.06274,0.06009 c 0.277417,0.297071 2.81613,-0.474709 1.89052,0.987969 z m -0.509102,-1.97594 c -1.48006,-0.330709 -1.86935,0.619843 -2.50129,0.05329 l -0.08542,-0.118677 0.14778,0.0026 c 0.844346,0.05745 1.82967,-0.998929 2.43893,0.06274 z m -1.27068,-1.92151 c -0.913512,-0.699969 -1.22532,0.90822 -2.33991,-0.01323 -0.05631,-0.04536 -0.109606,-0.09487 -0.07748,-0.161386 0.48378,0.04649 0.706772,0.252094 1.2,-0.108094 l -0.02797,0.02948 c 0.664063,-0.634583 1.42526,-0.04006 1.24535,0.253228 z m -1.61197,-1.74387 c -0.265323,-0.09751 -0.38022,-0.07861 -0.637606,-0.0068 -0.131906,0.265323 -0.430488,0.746835 -0.729071,0.552189 0.186709,-0.253606 0.192,-0.217323 0.295937,-0.573354 0.22148,-0.74948 1.19471,-0.228283 1.07074,0.02797 z m -11.1829,-0.109606 c 0.04422,0.402898 -0.374551,0.18822 -0.405165,0.841701 -0.06539,1.37197 -0.472063,1.49858 -1.78129,1.27861 -0.04687,-0.0083 -0.04271,-0.0068 -0.0601,-0.03628 0.238488,-0.237354 0.722646,-0.106583 0.96378,-0.157228 0.802772,-0.170457 -0.192,-1.00649 1.28277,-1.9268 z m 1.1709,-0.30652 c -0.862866,0.325417 -0.534803,1.58816 -1.12819,1.24271 l -0.05745,-0.04384 -0.03439,-0.08428 c 0.01739,-0.0026 0.06917,-0.0064 0.14778,-0.01172 0.08806,-0.0057 0.35074,-1.8429 1.07225,-1.10287 z m 5.78797,-1.16939 c -1.60025,0.661417 0.303874,0.656126 -0.171969,1.51597 -0.162898,0.294803 -0.648189,0.178772 -0.904063,0.100157 0.570709,-0.202583 0.741165,-0.09222 0.469417,-0.426709 -0.72,-0.881386 -0.368126,-1.46268 0.606614,-1.18942 z m -2.42948,0.09751 c -1.24535,0.99326 0.26948,1.50652 -0.241134,1.73329 -0.08693,0.03742 -0.185575,-0.03742 -0.248315,-0.07484 0.06274,-0.03439 0.08277,-0.048 0.09864,-0.05443 -0.05178,-0.06274 -0.178394,-0.225638 -0.183685,-0.230929 -0.838677,-0.919937 -0.0083,-1.51332 0.574488,-1.3731 z m -1.99068,0.482646 c -0.391937,0.522709 -0.603969,0.462614 -0.515906,0.935811 0.146646,0.25474 0.234709,0.354898 0.405165,0.669354 0.03477,0.169323 0.0068,0.242646 -0.157228,0.360189 -0.176126,-0.758929 -1.75861,-1.33606 0.267969,-1.96535 z m -0.11074,1.60517 0.0026,0.0053 -0.0079,-0.03439 c 0.0015,0.0091 0.0042,0.02003 0.0053,0.0291 z m 7.12025,4.5668 c 1.40787,0.434646 1.38255,1.06658 2.21065,1.13991 0.07068,0.0053 1.07717,-0.149291 0.839811,0.08806 -0.165165,-0.105449 -1.32132,0.624 -1.96271,-0.148157 -0.487937,-0.587717 -0.731717,-0.651969 -1.01065,-0.905197 0.0042,0.103937 -0.02797,0.219969 -0.05442,0.286866 -0.674646,1.69965 -1.83345,0.428976 -2.50431,-0.55748 -0.106583,0.0291 -0.08504,0.0412 -0.115654,0.189354 -0.382866,1.75861 -1.45096,2.03339 -2.51225,1.07717 0.44674,0.818646 -0.732094,0.966803 -1.44,1.776 -0.298583,0.340157 -2.08517,0.0068 -1.31452,-0.932031 -0.0053,0.729449 0.106583,0.725291 1.02917,0.696189 0.676157,-0.813354 0.581291,-0.59074 1.488,-1.0628 -0.01739,-0.385134 -0.06387,-0.56126 -0.181417,-0.91578 l 0.0015,0 c -0.03061,-0.03742 -0.06123,-0.07597 -0.09071,-0.114898 1.98954,0.890835 1.9132,1.13461 2.8509,-0.574488 0.04233,-0.07597 0.246425,-0.315969 0.284976,-0.138709 0.669354,0.278551 1.22419,1.05865 1.76277,1.01745 0.345449,-0.354898 0.698835,-0.566929 0.594898,-0.958866 0.05442,0.0015 0.09449,0.01474 0.123969,0.03742 z m -8.92535,1.97065 c -1.01745,0.851906 -0.848126,0.856063 1.0371,1.34249 -2.12372,0.434646 -2.85468,-1.09191 -1.0371,-1.34249 z m 8.40378,-3.4148 c 1.32283,-0.418394 1.62671,-1.36668 2.7908,-1.05978 l 0,0 c -1.20265,0.48 -1.85197,1.42261 -2.7908,1.05978 z M 25.392031,16.8295 c 0.282709,0.178394 0.447874,0.349228 0.573354,0.491717 0.0042,0.0026 0.0079,0.0053 0.01209,0.0094 l -0.0026,0.0026 c 0.247937,0.289512 0.331843,0.462614 0.895748,0.362835 0.120189,-0.02154 0.130772,-0.0094 0.229417,0.048 -0.606614,0.494362 -1.02009,0.370394 -1.30658,-0.01096 -0.0053,0.0068 -0.0094,0.01361 -0.01323,0.02154 -0.588094,0.80126 -1.41997,0.396094 -2.09348,-0.04006 0.08126,0.11074 0.09865,0.25474 -0.149291,0.46526 -0.873449,0.737386 -1.90791,0.425575 -2.60409,-0.266457 -0.0038,0.116031 -0.0079,0.230551 -0.0079,0.351874 0.0026,1.10287 -1.03483,1.19849 -1.73594,0.981165 0.205228,0.412346 -0.09335,0.793701 -0.836031,1.21625 -0.656126,0.374551 -2.35351,0.0771 -1.47213,-0.725291 0.07484,0.189354 -0.130772,0.30274 -0.09713,0.345071 0.230551,-0.02532 0.40252,0.546898 1.33871,0.03213 l -0.0548,0.04006 c 1.06394,-0.742677 1.01329,-0.629291 0.630803,-1.15616 -0.06009,-0.05065 -0.102803,-0.105071 -0.12548,-0.159874 l 0.01587,0.0042 c -0.01852,-0.02835 -0.03855,-0.05896 -0.05858,-0.09071 -0.04649,-0.07219 -0.03591,-0.0548 -0.02381,-0.156094 l 0.06501,0.048 0.04951,0.03855 c 0.116031,0.07861 0.214677,0.156094 0.298583,0.232063 0.766866,0.146646 1.52277,0.138709 1.728,-0.673134 0.06954,-0.272126 0.05594,-0.292157 0.190866,-0.426709 -0.06539,-0.07068 -0.126992,-0.145512 -0.184063,-0.222992 0.179906,0.0669 1.52277,0.693543 1.67584,0.634961 l -0.01474,0.0038 c 1.90677,-0.370394 0.910866,-0.598677 1.01745,-0.751748 -0.06539,-0.04535 -0.12926,-0.08806 -0.187843,-0.126992 0.894614,0.0189 1.82929,0.957354 2.496,0.137575 -0.101291,-0.197291 -0.182929,-0.425575 -0.249449,-0.659906 z m -1.94003,-2.10557 c 0.611906,0.209386 0.933543,1.15616 1.99068,0.434646 0.794835,-0.542362 0.933165,-0.925228 1.95061,-0.75326 -1.20529,0.349228 -0.715843,0.280063 -1.67471,1.06545 -0.707906,0.578646 -1.44529,0.217323 -1.88258,-0.179906 0.02003,0.130394 -0.0053,0.25852 -0.09335,0.36926 l 0.0053,-0.0026 c -0.02797,0.07332 -0.0412,0.09865 -0.109228,0.150425 l 0.0094,-0.0091 -0.261543,0.230551 c -0.467906,0.341291 -0.965291,0.0601 -1.16107,-0.113386 -0.06274,0.0053 -0.186709,0.01587 -0.30274,0.02003 0.953197,0.967937 -2.15735,1.55603 -2.24542,0.581291 -0.05745,-0.226772 -0.340157,-0.305386 -0.618709,-0.394583 0.382866,0.740031 -0.117165,2.016 -0.914646,1.74009 -0.218835,-0.07597 -0.406677,-0.177638 -0.55748,-0.30274 0.04687,0.269102 0.03364,0.517417 -0.107717,0.618709 -0.808063,0.577134 -0.816,1.16372 -1.55754,1.09984 -1.65468,-0.141354 -0.489449,-1.33606 -0.174614,-2.01449 0.101291,0.711685 -1.02652,1.62104 0.207874,1.63313 0.504189,0.0053 0.521575,-0.714709 1.32132,-0.966425 0.08806,-0.136063 0.02797,-0.504189 -0.03591,-0.821669 -0.06274,-0.146646 -0.09449,-0.30652 -0.09335,-0.476976 l 0,0 0,0 c 0.0015,-0.100157 0.01474,-0.205606 0.04158,-0.312189 0.295937,0.788031 0.253228,0.841323 1.06507,1.18261 0.278929,0.117543 0.917291,-0.837165 0.42822,-1.53449 -0.08277,-0.05216 -0.150803,-0.118677 -0.186709,-0.205606 l -0.05329,-0.04913 -0.02154,-0.06387 0.0015,0 c 0.174614,0.0359 0.315969,0.106583 0.427843,0.203717 0.515906,0.118677 1.14935,0.241512 1.17619,0.648189 0.0026,-0.0015 0.0011,-0.0015 0.0026,-0.0015 0.255874,0.169323 2.36372,0.22148 1.48535,-0.56126 -0.293291,-0.260031 -0.485291,-0.474709 -0.444094,-0.857197 0.257386,0.351874 0.212031,0.389291 0.622488,0.666709 0.04157,0.02797 0.07899,0.05594 0.112252,0.08239 0.190488,-0.09071 0.390425,-0.182551 0.525354,-0.09978 l -0.04271,-0.03893 c 0.722646,0.156094 0.470551,0.436157 1.02803,-0.173102 -0.0053,0.0079 -0.0094,0.01323 -0.0079,0.01739 l 0.01058,-0.02003 0.01852,-0.02003 c -0.0038,0.0026 -0.01058,0.01058 -0.01852,0.01852 0.02117,-0.03855 0.03591,-0.06009 0.06274,-0.0771 0.336,-0.362835 -0.79748,-0.877606 -1.04013,-0.966803 0.421417,-0.0892 0.828094,0.04006 1.11194,0.253228 l 0,0 z m -0.137197,0.794835 0.0026,-0.0026 0,-0.0015 -0.0026,0.0042 z m -1.09871,0.386646 c -0.01625,-0.0121 -0.02797,-0.02532 -0.03742,-0.03742 0.01058,0.01323 0.02268,0.02797 0.03742,0.03742 z m 0.01323,0.0094 c 0.01474,0.0064 0.02797,0.0079 0.03855,-0.0026 0,0 -0.01436,0.0011 -0.03855,0.0026 z m -4.95723,2.02243 c -0.0042,0.0026 -0.0068,0.0053 -0.0094,0.0094 0.0042,-0.0026 0.0068,-0.0068 0.0094,-0.0094 z m -2.69858,-1.24006 c -0.224126,0.121323 -1.93209,1.14028 -0.998929,1.54961 0.498898,0.218457 0.970961,-0.917291 1.09757,-1.20151 0.07446,0.14022 0.096,0.190866 0.05707,0.35074 -0.722646,3.02816 -3.59584,-0.292157 -0.155717,-0.698835 z m -1.3508,-0.298583 -0.0015,0.01587 c 0.0015,-0.0053 0.0015,-0.01058 0.0015,-0.01587 z" id="_349636808" style="fill:#000000;stroke:#000000;stroke-width:0.66784298;stroke-linejoin:bevel"/></g><g id="Group_2"><polygon id="_349637984" points="15.0667,30.9668 16.3306,28.8094 16.4175,28.8159 17.1961,30.9078 17.7895,29.8386 17.8322,29.8148 20.0202,29.8148 20.0202,29.9108 17.8602,29.9108 17.2305,31.0454 17.1428,31.0386 16.3627,28.944 15.0826,31.132 14.9934,31.1146 14.496,27.9681 13.1055,29.8908 13.0666,29.9108 10.2788,29.9108 10.2788,29.8148 13.0428,29.8148 14.4866,27.8173 14.5735,27.8385 " style="fill:#000000;stroke:#000000;stroke-width:0.379843;stroke-linejoin:bevel"/><polygon id="_349638248" points="22.7921,30.9668 24.0548,28.8094 24.1414,28.8159 24.9214,30.9078 25.5133,29.8386 25.556,29.8148 27.744,29.8148 27.744,29.9108 25.584,29.9108 24.9547,31.0454 24.8666,31.0386 24.0866,28.944 22.8079,31.132 22.7187,31.1146 22.2214,27.9681 20.832,29.8908 20.7934,29.9108 18.0042,29.9108 18.0042,29.8148 20.7681,29.8148 22.2119,27.8173 22.2988,27.8385 " style="fill:#000000;stroke:#000000;stroke-width:0.379843;stroke-linejoin:bevel"/><polygon id="_349638488" points="30.9453,30.9668 32.208,28.8094 32.2946,28.8159 33.0735,30.9078 33.6665,29.8386 33.7092,29.8148 35.8987,29.8148 35.8987,29.9108 33.7387,29.9108 33.1068,31.0454 33.0198,31.0386 32.2401,28.944 30.9615,31.132 30.8719,31.1146 30.3746,27.9681 28.9841,29.8908 28.9455,29.9108 26.1558,29.9108 26.1558,29.8148 28.9213,29.8148 30.3655,27.8173 30.4505,27.8385 " style="fill:#000000;stroke:#000000;stroke-width:0.379843;stroke-linejoin:bevel"/></g><g id="Group_3"><polygon id="_349639640" points="17.9467,34.7985 18.7918,33.3532 18.8493,33.36 19.372,34.7588 19.7692,34.0441 19.7972,34.0267 21.2614,34.0267 21.2614,34.0921 19.8161,34.0921 19.3935,34.8506 19.3361,34.8465 18.8134,33.4439 17.9573,34.9092 17.8972,34.8975 17.5654,32.7919 16.6348,34.0785 16.608,34.0921 14.7402,34.0921 14.7402,34.0267 16.5921,34.0267 17.5586,32.6906 17.616,32.7039 " style="fill:#000000;stroke:#000000;stroke-width:0.379843;stroke-linejoin:bevel"/><polygon id="_349639880" points="23.1175,34.7985 23.9626,33.3532 24.02,33.36 24.5412,34.7588 24.9388,34.0441 24.9668,34.0267 26.4321,34.0267 26.4321,34.0921 24.9853,34.0921 24.5639,34.8506 24.5053,34.8465 23.9841,33.4439 23.1281,34.9092 23.068,34.8975 22.7361,32.7919 21.8041,34.0785 21.7788,34.0921 19.9121,34.0921 19.9121,34.0267 21.7614,34.0267 22.7278,32.6906 22.7853,32.7039 " style="fill:#000000;stroke:#000000;stroke-width:0.379843;stroke-linejoin:bevel"/><polygon id="_349640120" points="28.5732,34.7985 29.4187,33.3532 29.4773,33.36 29.9985,34.7588 30.3946,34.0441 30.4241,34.0267 31.8879,34.0267 31.8879,34.0921 30.4426,34.0921 30.02,34.8506 29.9626,34.8465 29.4399,33.4439 28.5838,34.9092 28.5252,34.8975 28.1919,32.7919 27.2614,34.0785 27.2345,34.0921 25.3678,34.0921 25.3678,34.0267 27.2186,34.0267 28.1854,32.6906 28.244,32.7039 " style="fill:#000000;stroke:#000000;stroke-width:0.379843;stroke-linejoin:bevel"/></g></g></g><g id="Layer_1"/></g></g></g></g></svg>