<?xml version="1.0" ?><svg id="Layer_1_1_" style="enable-background:new 0 0 64 64;" version="1.1" viewBox="0 0 64 64" xml:space="preserve" xmlns="http://www.w3.org/2000/svg" xmlns:xlink="http://www.w3.org/1999/xlink"><path d="M51.948,10.684c-0.128-0.384-0.474-0.652-0.877-0.681c-0.414-0.031-0.785,0.188-0.966,0.55l-1.791,3.582L46.97,8.758  c-0.104-0.421-0.47-0.727-0.902-0.756c-0.424-0.017-0.834,0.224-0.996,0.627L43.323,13H40v2h4c0.409,0,0.776-0.249,0.929-0.629  l0.852-2.128l1.25,4.999c0.102,0.406,0.444,0.706,0.86,0.752C47.928,17.998,47.964,18,48,18c0.376,0,0.724-0.212,0.895-0.553  l1.92-3.841l0.237,0.71C51.188,14.725,51.569,15,52,15h3v-2h-2.279L51.948,10.684z"/><path d="M59.228,26.684C59.092,26.275,58.71,26,58.279,26H36.721c-0.43,0-0.813,0.275-0.949,0.684l-2.333,7  C33.223,34.331,33.705,35,34.387,35h26.225c0.683,0,1.165-0.669,0.949-1.316L59.228,26.684z M39,33h-2v-1h2V33z M39,30h-2v-1h2V30z   M44,33h-4v-1h4V33z M44,30h-4v-1h4V30z M49,33h-3v-1h3V33z M49,30h-3v-1h3V30z M55,33h-4v-1h4V33z M55,30h-4v-1h4V30z M58,33h-2v-1  h2V33z M58,30h-2v-1h2V30z"/><path d="M35,22c0,1.105,0.895,2,2,2h21c1.105,0,2-0.895,2-2V4c0-1.105-0.895-2-2-2H37c-1.105,0-2,0.895-2,2v6h-6V6h-4v2h-8  c-3.859,0-7,3.141-7,7v16.098C5.86,32.902,3,36.899,3,42.8C3,51.047,8.572,62,15.444,62s12.444-10.953,12.444-19.2  c0-6.316-3.272-10.455-7.889-12.052V19c0-0.552,0.448-1,1-1h4v2h4v-4h6V22z M38,5h19v16H38V5z M9.389,45.5c-2.206,0-4-1.57-4-3.5h1  c0,1.379,1.346,2.5,3,2.5s3-1.121,3-2.5h1C13.389,43.93,11.595,45.5,9.389,45.5z M19,54.5h-7v-1h7V54.5z M24.389,42h1  c0,1.93-1.794,3.5-4,3.5s-4-1.57-4-3.5h1c0,1.379,1.346,2.5,3,2.5S24.389,43.379,24.389,42z M21,34v4H9v-4H21z M25,16h-4  c-1.654,0-3,1.346-3,3v11.222c-0.648-0.115-1.319-0.174-2-0.199V17c0-1.654,1.346-3,3-3h6V16z M25,12h-6c-2.757,0-5,2.243-5,5  v13.075c-0.686,0.066-1.353,0.182-2,0.343V15c0-2.757,2.243-5,5-5h8V12z M29,14v-2h6v2H29z"/></svg>