<?xml version="1.0" ?><svg id="Layer_1_1_" style="enable-background:new 0 0 64 64;" version="1.1" viewBox="0 0 64 64" xml:space="preserve" xmlns="http://www.w3.org/2000/svg" xmlns:xlink="http://www.w3.org/1999/xlink"><rect height="16" style="fill:#ADC4E6;" width="19" x="38" y="5"/><rect height="14" style="fill:#CFCFCF;" width="4" x="25" y="9"/><path d="M28.111,42.8c0,8.247-5.82,19.2-13,19.2s-13-10.953-13-19.2s5.82-12.8,13-12.8  S28.111,34.553,28.111,42.8z" style="fill:#FFDBAC;"/><rect height="4" style="fill:#CFCFCF;" width="12" x="9" y="35"/><polygon points="36,28 33,36 62,36 59,28 " style="fill:#759ACC;"/><path d="M58,24c1.105,0,2-0.895,2-2V4c0-1.105-0.895-2-2-2H37c-1.105,0-2,0.895-2,2v18c0,1.105,0.895,2,2,2  H58z" style="fill:#759ACC;"/><path d="M12.938,43h-0.21c-0.393,0-0.704,0.269-0.856,0.631C11.541,44.426,10.603,45,9.5,45s-2.041-0.574-2.372-1.369  C6.976,43.269,6.665,43,6.272,43h-0.21c-0.614,0-1.063,0.607-0.86,1.187C5.772,45.815,7.483,47,9.5,47s3.728-1.185,4.298-2.813  C14.001,43.607,13.552,43,12.938,43z"/><path d="M17.161,43h-0.21c-0.614,0-1.063,0.607-0.86,1.187C16.661,45.815,18.372,47,20.389,47s3.728-1.185,4.298-2.813  C24.89,43.607,24.441,43,23.826,43h-0.21c-0.393,0-0.704,0.269-0.856,0.631C22.43,44.426,21.492,45,20.389,45  s-2.041-0.574-2.372-1.369C17.865,43.269,17.554,43,17.161,43z"/><path d="M11.9,56h5.2c0.497,0,0.9-0.403,0.9-0.9v-0.2c0-0.497-0.403-0.9-0.9-0.9h-5.2c-0.497,0-0.9,0.403-0.9,0.9v0.2  C11,55.597,11.403,56,11.9,56z"/><path d="M34,19v3c0,1.654,1.346,3,3,3h21c1.654,0,3-1.346,3-3V4c0-1.654-1.346-3-3-3H37c-1.654,0-3,1.346-3,3v9h-4V9  c0-0.553-0.447-1-1-1h-4c-0.553,0-1,0.447-1,1v2h-7c-3.859,0-7,3.141-7,7v11.761C4.469,31.535,1,36.328,1,42.8  C1,50.934,6.879,63,15,63s14-12.066,14-20.2c0-6.472-3.469-11.265-9-13.039V22c0-0.552,0.448-1,1-1h3v2c0,0.553,0.447,1,1,1h4  c0.553,0,1-0.447,1-1v-4H34z M12,18c0-2.757,2.243-5,5-5h7v2h-5c-2.757,0-5,2.243-5,5v9.042c-0.685,0.038-1.357,0.099-2,0.212V18z   M12,34v-2.702c0.64-0.128,1.306-0.215,2-0.258V34H12z M20,36v2H10v-2H20z M16,34v-2.96c0.694,0.042,1.36,0.13,2,0.258V34H16z   M27,42.8C27,50.822,21.35,61,15,61S3,50.822,3,42.8c0-5.355,2.63-9.293,7-10.943V34H9c-0.553,0-1,0.447-1,1v4c0,0.553,0.447,1,1,1  h12c0.553,0,1-0.447,1-1v-4c0-0.553-0.447-1-1-1h-1v-2.143C24.37,33.507,27,37.445,27,42.8z M21,19c-1.654,0-3,1.346-3,3v7.254  c-0.643-0.113-1.315-0.174-2-0.212V20c0-1.654,1.346-3,3-3h5v2H21z M28,22h-2V10h2V22z M36,4c0-0.552,0.448-1,1-1h21  c0.552,0,1,0.448,1,1v18c0,0.552-0.448,1-1,1H37c-0.552,0-1-0.448-1-1V4z M34,15v2h-4v-2H34z"/><path d="M38,22h19c0.553,0,1-0.447,1-1V5c0-0.553-0.447-1-1-1H38c-0.553,0-1,0.447-1,1v16C37,21.553,37.447,22,38,22z M39,6h17v14  H39V6z"/><path d="M51.948,10.684c-0.128-0.384-0.474-0.652-0.877-0.681c-0.414-0.031-0.785,0.188-0.966,0.55l-1.791,3.582L46.97,8.758  c-0.104-0.421-0.47-0.727-0.902-0.756c-0.424-0.017-0.834,0.224-0.996,0.627L43.323,13H40v2h4c0.409,0,0.776-0.249,0.929-0.629  l0.852-2.128l1.25,4.999c0.102,0.406,0.444,0.706,0.86,0.752C47.928,17.998,47.964,18,48,18c0.376,0,0.724-0.212,0.895-0.553  l1.92-3.841l0.237,0.71C51.188,14.725,51.569,15,52,15h3v-2h-2.279L51.948,10.684z"/><path d="M59.937,27.648C59.79,27.259,59.417,27,59,27H36c-0.417,0-0.79,0.259-0.937,0.648l-3,8  c-0.115,0.308-0.072,0.651,0.114,0.921C32.365,36.839,32.672,37,33,37h29c0.328,0,0.635-0.161,0.822-0.431  c0.187-0.27,0.229-0.613,0.114-0.921L59.937,27.648z M34.443,35l2.25-6h21.613l2.25,6H34.443z"/><rect height="2" width="2" x="37" y="31"/><rect height="2" width="4" x="51" y="31"/><rect height="2" width="2" x="56" y="31"/><rect height="2" width="4" x="40" y="31"/><rect height="2" width="3" x="46" y="31"/></svg>